<?xml version="1.0" standalone="no"?>
<svg version="1.0" xmlns="http://www.w3.org/2000/svg"
 width="512.000000pt" height="512.000000pt" viewBox="0 0 512.000000 512.000000"
 preserveAspectRatio="xMidYMid meet"  >

<g  transform="translate(0.000000,512.000000) scale(0.100000,-0.100000)"
fill="#ffffff" stroke="none">
<path d="M2502 5103 c-18 -9 -41 -30 -50 -47 -16 -29 -17 -192 -22 -2339 l-5
-2307 -445 446 c-258 259 -459 452 -478 460 -72 32 -162 -28 -162 -107 0 -22
6 -52 14 -67 8 -15 259 -271 558 -569 552 -551 577 -573 648 -573 71 0 96 22
648 573 299 298 550 554 558 569 8 15 14 45 14 67 0 79 -90 139 -162 107 -19
-8 -220 -201 -478 -460 l-445 -446 -5 2307 c-5 2151 -6 2310 -22 2339 -18 33
-71 64 -110 64 -12 0 -38 -8 -56 -17z"/>
</g>
</svg>
